<svg version="1.2" xmlns="http://www.w3.org/2000/svg" viewBox="0 0 40 45" width="40" height="45">
	<title>2-svg</title>
	<style>
		.s0 { fill: #000000 } 
	</style>
	<g id="Layer_1">
		<path id="Layer" fill-rule="evenodd" class="s0" d="m39.1 22.1c0 3.8-1.2 7.4-3.2 10.5-2.1 3.1-5.1 5.5-8.6 7-3.5 1.4-7.3 1.8-11 1-3.7-0.7-7.1-2.5-9.7-5.1q-1.4-1.3-2.4-2.9-1-1.5-1.8-3.2-0.7-1.8-1-3.6-0.4-1.8-0.4-3.7h2.6c0 9 7.4 16.4 16.4 16.4 9.1 0 16.5-7.4 16.5-16.4 0-8.9-7.4-16.3-16.5-16.3q-1.6 0-3.3 0.4-1.6 0.3-3.2 1-1.5 0.6-2.9 1.6-1.4 0.9-2.5 2.1h5v2.6h-9v-8.9h2.6v4.2c2.6-2.7 6-4.4 9.7-5.1 3.7-0.8 7.5-0.4 11 1.1 3.4 1.4 6.4 3.8 8.5 6.9 2 3.1 3.2 6.7 3.2 10.4zm-17-9.9v9.4h8v2.6h-10.6v-12z"/>
	</g>
</svg>