<svg version="1.2" xmlns="http://www.w3.org/2000/svg" viewBox="0 0 120 120" width="120" height="120">
	<title>icons8-ветер-90-svg-svg</title>
	<style>
		.s0 { fill: #000000 } 
	</style>
	<g id="Layer">
		<path id="Layer" class="s0" d="m49.9 36.3c2.3 0.2 3.4 0.8 5.4 2.6 2.2 2.2 2.4 2.8 2.4 6.1 0 3.3-0.2 3.9-2.6 6.1l-2.4 2.6h-8.2-8.2v-1.7c0-1.7 0-1.7 7.6-2 6.9-0.3 7.6-0.5 8.8-1.9 1.8-2.2 1.6-4.5-0.4-6.4-1.8-1.9-4.1-2.2-6-0.7-1.7 1.3-3.6 1.3-4.1 0-0.4-1.2 1.4-3.5 3.5-4.4 0.7-0.3 2.6-0.5 4.2-0.3z"/>
		<path id="Layer" class="s0" d="m78 41.5c3.3 1.7 6 5.9 6 9.5 0 3.6-2.7 7.8-6 9.5-2.9 1.5-3.4 1.5-22.3 1.4l-19.4-0.2v-1.7-1.7l19.9-0.3 19.9-0.3 2-2.2c2.8-3.1 2.6-6.2-0.4-9.2-2.6-2.7-5.9-3.1-8.6-1-1.8 1.6-4.2 1.8-4.6 0.5-0.6-1.5 0.9-3.2 3.7-4.5 3.7-1.7 6.2-1.6 9.8 0.2z"/>
		<path id="Layer" class="s0" d="m53.7 66.1l17 0.2 2.4 2.6c2.3 2.2 2.6 2.8 2.6 6 0 4-1.5 6.5-5 8.2-2.8 1.4-7 0.8-9.1-1.2-2.9-2.8-1.1-5.1 2.4-3 2.6 1.5 4.5 1.4 6.3-0.6 2.2-2 2.2-4.6 0-6.6l-1.6-1.7h-16c-13.7 0-16.1-0.1-16.4-1-0.3-0.5-0.2-1.5 0-2 0.3-0.9 2.5-1.1 17.4-0.9z"/>
	</g>
</svg>