<svg version="1.2" xmlns="http://www.w3.org/2000/svg" viewBox="0 0 120 120" width="120" height="120">
	<title>icons8-цветовая-палитра-80-svg-svg</title>
	<style>
		.s0 { fill: #000000 } 
	</style>
	<g id="Layer">
		<path id="Layer" fill-rule="evenodd" class="s0" d="m37.5 36.8h13.4l0.3 7.6 0.2 7.7 4.3-7.7 4.5-7.7 4.9 2.7c2.8 1.5 5.3 3.1 5.7 3.4 0.8 0.7-0.1 2.9-4.1 9.6l-2.3 4.1 3.4-2c1.9-1.1 4.9-2.8 6.8-3.9 2.5-1.5 3.3-1.7 3.9-1 1.3 1.6 6.3 10.6 6.1 10.8-0.1 0-3.8 2.2-8.1 4.7l-7.9 4.7h15.4v13.4h-46.5zm12 1.5h-10.5v43.5h10.5zm11.2 0.8c-0.8 0-4.6 8.2-4.2 8.9 0.4 0.5 0.1 0.8-0.5 0.8-0.6 0-1.9 1.5-3 3.4-1.7 3-1.8 4.1-1.9 13.7-0.1 5.6 0.1 10 0.4 9.7 0.2-0.2 2.1-3.3 4-6.7 2.4-4.2 3.3-6.3 2.7-6.7-0.5-0.4-0.5-0.6 0.3-0.6 1.6 0 6.2-7.7 5-8.4-0.8-0.5-0.3-0.9 1.1-0.8 0.4 0.1 5.3-8.1 5-8.4-0.1-0.1-2.1-1.3-4.4-2.6-2.3-1.3-4.4-2.3-4.5-2.3zm16.7 12c-1.5 0-8.4 4.7-7.9 5.4 0.3 0.4 0 0.7-0.6 0.4-1.6-0.5-6.3 2.1-7.2 4.2-0.5 1.1-0.7 2.6-0.5 3.3 0.3 1 0.2 1.1-0.3 0.4-0.5-0.8-1.6 0.5-4.2 5-1.9 3.3-3.4 6.2-3.4 6.4 0 0.2 2.3-0.8 5.2-2.4 2.9-1.5 5.3-3.3 5.3-3.8 0-0.5 0.3-0.7 0.7-0.5 1 0.6 8.3-3.5 8.3-4.7 0-0.4 0.6-0.8 1.3-0.7 1.2 0 8.4-3.8 8.4-4.5 0-0.1-1-2.1-2.3-4.4-1.3-2.2-2.6-4.1-2.8-4.1zm-15.4 23.8c0.4 1.1-0.9 1.3-1.4 0.3-0.3-1-9.6 4.6-9.6 5.7 0 1.3 9.5 1.3 10.1 0 0.3-0.8 0.5-0.8 0.9 0 0.6 1.3 9 1.3 9.6 0 0.3-0.8 0.5-0.7 0.9 0 0.3 0.6 2.1 1 5.2 1h4.8v-10.6h-4.8c-3.1 0-4.9 0.3-5.2 1-0.4 0.7-0.6 0.7-0.9 0-1.2-2.4-10.4 0.2-9.6 2.6z"/>
		<path id="Layer" class="s0" d="m44.4 74.4c1.3 0.1 1.7 0.8 1.7 2.1 0 1.3-0.4 1.9-1.7 2.1-1.8 0.3-2.8-1.3-2.1-3.3 0.2-0.7 1.1-1 2.1-0.9z"/>
		<path id="Layer" class="s0" d="m59 48.8c0.1-0.1 0.3 0.2 0.3 0.7 0 0.4-0.4 0.7-0.9 0.7-0.4 0-0.5-0.3-0.3-0.7 0.3-0.5 0.6-0.8 0.9-0.8z"/>
		<path id="Layer" class="s0" d="m61.1 50.3c0.2-0.1 0.6 0.2 0.8 0.7 0.2 0.4 0.1 0.7-0.3 0.7-0.5 0-0.9-0.3-0.9-0.7 0-0.5 0.2-0.8 0.4-0.8z"/>
		<path id="Layer" class="s0" d="m70.5 58.5c0.5 0 0.8 0.1 0.8 0.3-0.1 0.2-0.3 0.6-0.8 0.8-0.4 0.2-0.8 0.1-0.8-0.3 0.1-0.4 0.4-0.8 0.8-0.8z"/>
		<path id="Layer" class="s0" d="m71.6 60.8c0.2-0.1 0.6 0.2 0.8 0.7 0.2 0.4 0.1 0.7-0.3 0.7-0.5 0-0.9-0.3-0.9-0.7 0-0.5 0.2-0.8 0.4-0.8z"/>
		<path id="Layer" class="s0" d="m72 74.3c0.5 0 0.8 0.3 0.8 0.7-0.1 0.4-0.3 0.8-0.8 0.8-0.4 0-0.8-0.4-0.8-0.8 0.1-0.4 0.4-0.7 0.8-0.7z"/>
		<path id="Layer" class="s0" d="m61.5 77.3c0.5 0 0.8 0.3 0.8 0.7-0.1 0.4-0.3 0.8-0.8 0.8-0.4 0-0.8-0.4-0.8-0.8 0.1-0.4 0.4-0.7 0.8-0.7z"/>
		<path id="Layer" class="s0" d="m72 77.3c0.5 0 0.8 0.3 0.8 0.7-0.1 0.4-0.3 0.8-0.8 0.8-0.4 0-0.8-0.4-0.8-0.8 0.1-0.4 0.4-0.7 0.8-0.7z"/>
	</g>
</svg>