<svg version="1.2" xmlns="http://www.w3.org/2000/svg" viewBox="0 0 120 120" width="120" height="120">
	<title>1-svg</title>
	<style>
		.s0 { fill: #000000 } 
	</style>
	<g id="Layer">
		<path id="Layer" fill-rule="evenodd" class="s0" d="m51.8 20l15.7 0.1 10.9 10.9 11 11-0.1 26.5v26.6l-0.5 1c-0.9 1.9-2.4 3.2-4.3 3.7-0.7 0.2-5 0.2-24.5 0.2-22.8 0-23.8 0-24.7-0.3-1.9-0.6-3.2-1.7-4.1-3.6l-0.5-1v-70.2l0.5-1c0.9-1.8 2.4-3.2 4.3-3.7 0.5-0.1 4-0.2 16.3-0.2zm13.4 3.1h-14.3c-7.8 0-14.5 0.1-14.7 0.2-0.8 0.2-1.7 0.9-2.1 1.7l-0.3 0.8v34.2c0 32.8 0 34.2 0.2 34.8 0.4 0.7 1 1.4 1.7 1.7 0.4 0.3 2.4 0.3 24.3 0.3 21.9 0 23.9 0 24.3-0.3 0.7-0.3 1.3-1 1.7-1.7 0.2-0.6 0.2-1.7 0.2-25.6v-25h-7.6c-4.5 0-7.9-0.1-8.3-0.2-2.5-0.5-4.5-2.6-5-5.2-0.1-0.5-0.1-3.9-0.1-8.3zm18.7 17.9l-15.5-15.4v6.5c0 6.1 0.1 6.5 0.3 7.1 0.4 0.7 0.8 1.1 1.6 1.5 0.5 0.3 1 0.3 5.6 0.4 2.8 0 5.8 0 6.6 0z"/>
		<path id="Layer" class="s0" d="m73.4 60.3c0.4 0.2 0.8 0.9 0.8 1.4 0 0.5-0.4 1.2-0.7 1.4-0.5 0.2-26.5 0.2-27 0-0.3-0.2-0.7-0.9-0.7-1.4 0-0.5 0.3-1.1 0.8-1.3 0.5-0.3 26.1-0.3 26.8-0.1z"/>
		<path id="Layer" class="s0" d="m60.2 67.2l13.1 0.1 0.5 0.5c0.6 0.7 0.6 1.4 0 2.1l-0.5 0.4h-13.3-13.3l-0.5-0.4c-0.7-0.8-0.4-2.2 0.6-2.6 0.2 0 6.2-0.1 13.4-0.1z"/>
		<path id="Layer" class="s0" d="m73.2 74.4c1.1 0.5 1.3 1.6 0.6 2.5l-0.5 0.5h-13.3-13.3l-0.5-0.5c-0.7-0.9-0.5-2 0.6-2.5 0.7-0.3 25.6-0.3 26.4 0z"/>
		<path id="Layer" class="s0" d="m46.7 81.4h9.2 9.1l0.5 0.5c0.8 0.8 0.5 2-0.5 2.5-0.3 0.1-2.8 0.1-9.3 0.1h-9l-0.5-0.6c-0.6-0.7-0.6-1.4 0-2z"/>
	</g>
</svg>