<svg version="1.2" xmlns="http://www.w3.org/2000/svg" viewBox="0 0 120 120" width="120" height="120">
	<title>1-svg</title>
	<style>
		.s0 { fill: #000000 } 
	</style>
	<g id="Layer">
		<path id="Layer" fill-rule="evenodd" class="s0" d="m50.8 83.8l11.1 11.1c-0.6 0.1-1.2 0.1-1.9 0.1-18.4 0-33.4-14.1-34.9-32.1h4.4c1 11 7.9 20.3 17.4 24.8zm1.5-16.1q1-0.9 1-2.7 0-1-0.3-1.7-0.3-0.7-0.8-1.1-0.6-0.5-1.4-0.7-0.7-0.2-1.7-0.2h-2.2v-3h2.2q1 0 1.7-0.3 0.7-0.2 1.2-0.7 0.5-0.5 0.7-1.1 0.2-0.6 0.2-1.4 0-1.6-0.8-2.5-0.9-0.9-2.6-0.9-0.8 0-1.4 0.2-0.6 0.2-1.1 0.6-0.5 0.4-0.7 1-0.3 0.6-0.3 1.3h-3.8q0-1.3 0.6-2.4 0.5-1.2 1.5-2 0.9-0.8 2.2-1.3 1.4-0.5 3-0.5 1.6 0 3 0.4 1.3 0.5 2.3 1.3 0.9 0.8 1.5 2 0.5 1.2 0.5 2.8 0 0.7-0.2 1.4-0.2 0.7-0.7 1.3-0.4 0.7-1.1 1.2-0.6 0.6-1.5 1 1 0.4 1.8 0.9 0.7 0.6 1.1 1.3 0.5 0.7 0.7 1.5 0.2 0.7 0.2 1.6 0 1.6-0.6 2.8-0.6 1.3-1.6 2.1-1 0.9-2.4 1.3-1.4 0.5-3 0.5-1.5 0-2.9-0.5-1.3-0.4-2.3-1.2-1.1-0.8-1.7-2-0.6-1.2-0.6-2.7h3.8q0 0.7 0.3 1.3 0.2 0.7 0.7 1.1 0.5 0.4 1.2 0.7 0.7 0.2 1.5 0.2 1.8 0 2.8-0.9zm24.3-12.9q0.8 2.1 0.8 4.6v1.2q0 2.5-0.7 4.6-0.8 2-2.2 3.5-1.4 1.4-3.4 2.2-2 0.8-4.4 0.8h-6.7v-23.4h6.9q2.3 0 4.3 0.8 1.9 0.8 3.3 2.2 1.4 1.5 2.1 3.5zm-3.2 5.8v-1.2q0-3.8-1.7-5.8-1.6-2-4.8-2h-2.8v16.8h2.6q1.7 0 2.9-0.5 1.3-0.6 2.1-1.6 0.8-1 1.2-2.4 0.5-1.5 0.4-3.3zm21.6-3.5h-4.4c-1-11-7.9-20.3-17.4-24.8l-3.9 3.9-11.1-11.1c0.6-0.1 1.2-0.1 1.9-0.1 18.3 0 33.4 14.1 34.9 32.1z"/>
	</g>
</svg>