<svg version="1.2" xmlns="http://www.w3.org/2000/svg" viewBox="0 0 120 120" width="120" height="120">
	<title>1-svg</title>
	<style>
		.s0 { fill: #000000 } 
	</style>
	<g id="Layer">
		<path id="Layer" class="s0" d="m77.7 19.5c7 1.3 13.4 5.3 17.5 11.1 1.3 1.7 3 5.2 3.7 7.3 0.9 2.9 1.1 4.1 1.1 8.7 0 4.6-0.2 5.7-1.2 8.7-0.6 1.9-2.4 5.5-3.6 7.1-4 5.5-10.1 9.6-16.5 10.9-1.5 0.3-2 0.2-2.4-0.4-0.3-0.6-0.3-0.8 0.2-1.3 0.2-0.3 0.7-0.5 2.1-0.9 9.6-2.4 16.7-10.1 18.5-19.9 0.4-2.2 0.4-6.4 0-8.6-0.4-2-1.3-4.9-2.2-6.7-4.7-9.6-15.1-15.2-25.6-13.8-3.4 0.5-6.7 1.6-9.6 3.3-7.2 4.4-11.7 11.8-12.2 20.3 0 1.5-0.1 1.8-0.4 2.1-0.5 0.5-1.2 0.5-1.7 0-0.3-0.4-0.4-0.6-0.4-1.4 0-3.4 1.1-7.9 2.6-11.2 4.2-8.8 12.5-14.6 22.3-15.7 1.6-0.2 6.2 0 7.8 0.4z"/>
		<path id="Layer" fill-rule="evenodd" class="s0" d="m72.5 24c3 0 3 0 3.4 0.4 0.3 0.3 0.4 0.4 0.4 2.5v2.1h2.1c2.6 0 3.2 0.1 4.2 1.2 1.5 1.5 1.6 3.4 0.1 5-1 1.2-1 1.2-7 1.3-5.1 0.1-5.4 0.1-5.8 0.4-0.8 0.6-1.1 1.1-1.1 2.1 0 1 0.3 1.5 1.1 2.1 0.4 0.3 0.7 0.3 3.1 0.4 1.9 0.1 3 0.2 3.6 0.4 3.4 1.1 6.2 4.1 6.9 7.5 1.1 5.1-1.9 10.1-7 11.7-0.2 0.1-0.3 0.3-0.3 2.4 0 2.2 0 2.3-0.3 2.6-0.4 0.4-0.4 0.4-3.4 0.4-3 0-3 0-3.4-0.4-0.3-0.3-0.4-0.4-0.4-2.5v-2.1h-2.1c-2.6 0-3.2-0.1-4.2-1.2-1.5-1.5-1.6-3.4-0.2-5 1.1-1.2 1.1-1.2 7.1-1.3 5.1-0.1 5.4-0.1 5.8-0.4 0.8-0.6 1.1-1.1 1.1-2.1 0-1-0.3-1.5-1.1-2.1-0.4-0.3-0.7-0.3-3-0.4-2.7-0.1-3.5-0.2-4.9-0.9-2.6-1.1-4.6-3.4-5.5-6.3-0.5-1.7-0.5-4.1 0.1-5.9 0.9-2.8 3.3-5.3 6-6.3l0.9-0.3 0.1-2.3c0-2.3 0-2.4 0.4-2.7 0.3-0.3 0.6-0.3 3.3-0.3zm1.3 2.5h-2.5v2.1c0 2.5-0.2 2.8-1.5 3.1-4.8 1.1-7.3 6.1-5.2 10.5 0.7 1.4 1.5 2.3 2.7 3.1 1.4 0.9 2.1 1.1 5.1 1.2 2.3 0.1 2.8 0.2 3.4 0.4 1.1 0.6 1.7 1.2 2.3 2.3 0.5 0.9 0.6 1.1 0.6 2.3 0 1.1-0.1 1.5-0.4 2.1-0.7 1.2-1.1 1.7-2.2 2.3l-1 0.5-5.4 0.1-5.4 0.1-0.3 0.4c-0.4 0.5-0.3 1.2 0.1 1.6 0.4 0.4 0.4 0.4 3.4 0.4 3 0 3 0 3.4 0.4 0.3 0.4 0.4 0.4 0.4 2.5v2.1h2.5v-2.1c0-2.5 0.1-2.8 1.4-3.1 4.8-1.1 7.3-6.1 5.2-10.5-0.6-1.4-1.5-2.3-2.6-3.1-1.5-0.9-2.2-1.1-5.2-1.2-2.6-0.1-2.7-0.1-3.7-0.6-1-0.6-1.7-1.3-2.2-2.4-0.5-1-0.5-3 0-4.1 0.5-1 1.4-1.9 2.4-2.4 0.8-0.4 0.9-0.4 6.2-0.5l5.4-0.1 0.3-0.4c0.4-0.5 0.3-1.2-0.1-1.6-0.4-0.4-0.4-0.4-3.4-0.4-3 0-3 0-3.4-0.4-0.3-0.3-0.3-0.4-0.3-2.5z"/>
		<path id="Layer" class="s0" d="m38.8 32.8c0.7 0 1.2 0.5 1.2 1.6v0.9h0.9c1 0 1.6 0.4 1.6 1.2 0 0.8-0.6 1.3-1.6 1.3h-0.9v0.8c0 1.1-0.5 1.7-1.2 1.7-0.8 0-1.3-0.6-1.3-1.7v-0.8h-0.9c-1 0-1.6-0.5-1.6-1.3 0-0.8 0.6-1.2 1.6-1.2h0.9v-0.9c0-0.7 0.1-0.9 0.4-1.3 0.2-0.2 0.6-0.3 0.9-0.3z"/>
		<path id="Layer" fill-rule="evenodd" class="s0" d="m46.6 49.2c3.4 0.9 5.5 3.6 5.8 7.4 0.1 1.1-0.4 5.9-0.9 9.3l-0.1 0.6h8.7c8.7 0.1 8.7 0.1 9.4 0.4 1.2 0.6 1.8 1.2 2.4 2.3 0.5 0.9 0.5 1.1 0.5 2.2 0 1.1 0 1.4-0.4 2.2-0.3 0.5-0.8 1.1-1.2 1.5l-0.7 0.7 0.5 1c0.4 0.9 0.5 1.2 0.5 2.2 0 1.5-0.6 2.8-1.6 3.7l-0.7 0.6 0.5 1c0.5 0.9 0.5 1.1 0.5 2.2q0 2.3-1.6 3.7l-0.7 0.6 0.3 0.4c0.8 1 1 3 0.6 4.5-0.4 1-1.5 2.2-2.6 2.8l-0.9 0.4-11.3 0.1h-11.4l-3.5-1c-1.9-0.6-3.5-1-3.6-1-0.1 0-0.1 0.2-0.1 0.6 0 0.5-0.1 0.7-0.4 1l-0.4 0.4h-13.4l-0.4-0.4-0.4-0.4v-28.4l0.4-0.4 0.4-0.4h13.4l0.4 0.4c0.3 0.3 0.4 0.5 0.4 1.1v0.7l0.5-0.3c0.7-0.4 2-1.7 2.7-2.7 0.4-0.7 0.8-2 2.7-8.3 2.9-10.2 3-10.4 3.4-10.7q0.6-0.4 2.3 0zm-0.7 2.6c-0.1 0.2-1.2 3.9-2.5 8.4l-2.3 8.3-0.9 1.2c-1.1 1.8-2.4 2.9-3.9 3.6l-1.3 0.6v10.2 10.2l1.1 0.3c0.5 0.2 2.3 0.7 3.8 1.1l2.8 0.8h11c10.8-0.1 11-0.1 11.4-0.4 0.8-0.6 1.1-1.1 1.1-2.1 0-1-0.3-1.5-1.1-2.1-0.4-0.3-0.7-0.3-3.7-0.4-3.2-0.1-3.3-0.1-3.6-0.5-0.4-0.4-0.4-1.1 0-1.5 0.3-0.4 0.3-0.4 4.2-0.5 4.3-0.1 4.3-0.1 5.1-1.2 0.4-0.6 0.4-2 0-2.6-0.8-1.1-0.9-1.1-4.5-1.2-3.2-0.1-3.3-0.1-3.6-0.5-0.3-0.4-0.3-1.1 0-1.5 0.3-0.4 0.4-0.4 4.3-0.5 4.2-0.1 4.2-0.1 5-1.2 0.5-0.6 0.5-2 0-2.6-0.7-1.1-0.8-1.1-4.4-1.2-3.2-0.1-3.3-0.1-3.6-0.5-0.4-0.4-0.4-1.1 0-1.5 0.3-0.4 0.3-0.4 4.2-0.5 3.6-0.1 4-0.1 4.3-0.4 0.9-0.6 1.1-1.1 1.1-2.1 0-1-0.2-1.5-1.1-2.1-0.4-0.3-0.6-0.3-9.9-0.4l-9.6-0.1-0.3-0.4c-0.1-0.2-0.2-0.5-0.2-0.6 0-0.2 0.2-2.6 0.6-5.4 0.7-5.8 0.7-6.5-0.2-8.3-0.5-1-1.2-1.7-2.3-2.2-0.8-0.4-0.9-0.4-1-0.2zm-13.4 19.7h-10v25h10z"/>
		<path id="Layer" class="s0" d="m85 79c0.8 0 1.3 0.6 1.3 1.6l-0.1 0.9h0.9c1.1 0 1.6 0.5 1.6 1.3 0 0.7-0.5 1.2-1.6 1.2h-0.9v0.9c0 1-0.4 1.6-1.2 1.6-0.8 0-1.3-0.6-1.3-1.6v-0.9h-0.8c-1.1 0-1.6-0.5-1.6-1.3 0-0.7 0.5-1.2 1.6-1.2h0.8v-0.9c0-0.7 0.1-0.9 0.4-1.2 0.3-0.3 0.6-0.4 0.9-0.4z"/>
	</g>
</svg>