<svg version="1.2" xmlns="http://www.w3.org/2000/svg" viewBox="0 0 120 120" width="120" height="120">
	<title>icons8-плотник-100-svg-svg</title>
	<style>
		.s0 { fill: #000000 } 
	</style>
	<g id="Layer">
		<path id="Layer" fill-rule="evenodd" class="s0" d="m56.1 23.6c2 0 3.4 0.4 4.1 1.4 0.5 0.8 2.3 2.1 3.9 2.9 3.1 1.4 6.2 5.8 7.3 10.1 0.3 1.3 1.1 3.2 2 4.2 2.1 2.8 1.8 5.4-0.6 6.4-2 0.7-2 1-1.5 4.7 0.4 3.2 0.2 4.3-1 6-2.4 3.6-4.9 9.1-4.9 10.9 0 1.9 3.2 4.7 6 5.4 1.3 0.3 1.8 1 1.8 2.3v1.8l-3.9-1.6c-2.1-0.9-4.6-2.5-5.4-3.6-1.6-2-2.2-7.5-0.9-8.4 0.4-0.2 1.2-1.7 1.7-3.3 0.5-1.6 1.6-3.5 2.4-4.3 1.6-1.6 1.9-4.1 0.6-4.9-0.5-0.3-0.6-1.3-0.4-2.2 0.4-1.7 0.2-1.7-11.2-1.7-11.4 0-11.6 0-11.2 1.7 0.2 0.9 0.1 1.9-0.4 2.2-1.3 0.8-1 3.3 0.6 4.9 0.8 0.8 1.9 2.7 2.4 4.3 0.5 1.6 1.3 3.1 1.7 3.3 1.3 0.9 0.8 6.4-0.9 8.4-0.8 1.2-4.2 3-7.7 4.5-7.2 2.9-9.7 4.6-11.3 7.9l-1.3 2.3h22.7c22.1 0 22.5 0 22.5 1.5 0 1.6-0.4 1.6-23.9 1.5l-23.9-0.3 0.1-2.9c0.1-5.4 5.4-10.1 14.4-13 3.9-1.3 6.9-3.8 6.9-5.7 0-1.5-2.2-6.3-5.1-11.6-1.3-2.3-1.5-4.8-0.4-5.9 1.2-1.2 0.1-3.5-2-4.3-2.2-0.9-2.5-3.6-0.5-6.3 0.9-1 1.8-2.9 2.1-4.2 1-4.3 4.2-8.7 7.2-10.1 1.6-0.8 3.4-2.1 4-2.9 0.7-1 2-1.4 4-1.4zm0 3.1c-1.3 0-1.5 0.7-1.7 6-0.2 4.8-0.5 6.1-1.4 6.1-0.9 0-1.2-1.1-1.4-4.5-0.2-2.5-0.5-4.5-0.8-4.5-2.5 0-7.1 6.7-7.1 10.5 0 0.8-0.8 2.3-1.7 3.3-1.6 1.8-1.6 1.8-0.2 2.4 1.9 0.8 26.7 0.8 28.6 0 1.4-0.6 1.4-0.6-0.2-2.4-0.9-1-1.6-2.5-1.6-3.3-0.1-3.8-4.7-10.5-7.2-10.5-0.3 0-0.6 2-0.8 4.5-0.1 3.4-0.5 4.5-1.4 4.5-0.9 0-1.2-1.3-1.4-6.1-0.2-5.3-0.4-6-1.7-6z"/>
		<path id="Layer" fill-rule="evenodd" class="s0" d="m81 50.1c3.1 0 4 0.4 6.6 3.1 3 3.1 3 3.2 1.6 4.7-1.4 1.6-1.4 1.7 0.7 3.9 2.2 2.3 2.2 2.4 0.8 3.9-1.4 1.6-1.4 1.7 0.8 4 2.2 2.2 2.2 2.3 0.8 3.9-1.4 1.5-1.4 1.6 0.8 3.9 2.1 2.2 2.1 2.3 0.7 3.9-1.3 1.5-1.3 1.6-0.1 2.9 1.9 2.2 1.8 9.1-0.3 11.1-1.3 1.4-2.5 1.6-7.7 1.6-9.8 0-9.4 1.2-9.4-24.5 0-11.8 0.3-21.6 0.6-21.8 0.2-0.3 2.1-0.6 4.1-0.6zm0.6 3.1h-2.2v28.2h5.4c3 0 5.7-0.4 6-0.9 0.2-0.5-0.5-1.9-1.7-3.1-2.1-2.2-2.1-2.3-0.7-3.8 1.4-1.6 1.4-1.7-0.8-3.9-2.2-2.3-2.2-2.4-0.8-3.9 1.4-1.6 1.4-1.7-0.7-4-2.2-2.2-2.2-2.3-0.8-3.9 1.3-1.4 1.3-1.6 0-3.1-0.8-0.8-2.4-1.5-3.7-1.5zm3.1 31.2h-5.3l0.4 9h11.7l0.2-3.4c0.2-1.8-0.1-3.9-0.7-4.5-0.6-0.8-2.5-1.1-6.3-1.1z"/>
		<path id="Layer" class="s0" d="m85.9 87.8c3.2 0.3 3.3 2.5 0.2 2.8-2.4 0.3-4-0.8-3.2-2.2 0.4-0.5 1.7-0.8 3-0.6z"/>
	</g>
</svg>