<svg version="1.2" xmlns="http://www.w3.org/2000/svg" viewBox="0 0 120 120" width="120" height="120">
	<title>icons8-кровельные-работы-100-svg-svg</title>
	<style>
		.s0 { fill: #000000 } 
	</style>
	<g id="Layer">
		<path id="Layer" fill-rule="evenodd" class="s0" d="m60.5 45.9c0.5 0.2 7.4 4.6 15.2 9.8l14.3 9.4v4.6c0 4.1-0.1 4.7-1 4.7-0.6 0-7.2-4.1-14.6-9-7.4-4.9-13.9-9-14.3-9-0.4 0-6.9 4-14.4 9-7.5 4.9-14.1 9-14.7 9-0.8 0-1-0.7-1-4.7v-4.6l14.8-9.8c8.7-5.7 15.3-9.6 15.7-9.4zm-0.4 2.9c-0.6-0.1-7 3.8-14.3 8.7l-13.3 8.8-0.1 2.6v2.5l13.5-9c7.4-4.9 13.7-9 14.1-9 0.4 0 6.7 4.1 14.1 9l13.5 9v-5.1l-13.3-8.7c-7.3-4.8-13.8-8.8-14.2-8.8z"/>
		<path id="Layer" class="s0" d="m80.1 46.9l3.6 0.2 0.2 5.8c0 3.3-0.1 5.9-0.4 5.9-1.3 0-1.9-1.7-1.9-5.5v-4.1h-1.8c-1.7 0-1.8 0.1-1.8 3 0 3.1-0.4 3.6-1.7 2.3-0.8-0.8-1-6.6-0.3-7.3 0.3-0.3 2.1-0.4 4.1-0.3z"/>
	</g>
</svg>