<svg version="1.2" xmlns="http://www.w3.org/2000/svg" viewBox="0 0 120 120" width="120" height="120">
	<title>icons8-жажда-100-svg-svg</title>
	<style>
		.s0 { fill: #000000 } 
	</style>
	<g id="Layer">
		<path id="Layer" fill-rule="evenodd" class="s0" d="m60 32.4c1.2 0 9.7 12.4 14 20.4 5.7 10.7 6.5 17.6 2.7 24.7-2.1 4-4 5.8-8.5 8.2-2.6 1.3-3.9 1.5-8.2 1.5-4.3 0-5.6-0.2-8.2-1.5-4.5-2.4-6.4-4.2-8.5-8.2-3.8-7.1-3-14 2.7-24.7 2.8-5.3 8.6-14.2 11.7-18.2 1-1.2 2-2.2 2.3-2.2zm0 3.6c-0.7 0-8 10.9-11.1 16.5-2.8 5-5.7 13.1-5.7 16 0 8.8 7.8 16.7 16.8 16.7 9 0 16.8-7.9 16.8-16.7 0-2.9-2.9-11-5.7-16-1.2-2.2-4.1-6.8-6.4-10.3-2.3-3.4-4.4-6.2-4.7-6.2z"/>
		<path id="Layer" class="s0" d="m58.7 46.2q2.2 0-0.7 4.7c-3.4 5.5-6.9 13.2-7.4 16-0.7 4.9 2.1 9.1 7.1 10.9 2.7 0.9 2.7 2.4 0 2.1-2.9-0.2-5.9-2.2-7.8-5.1-1.4-2-1.6-3-1.6-6.3 0-3.5 0.4-4.7 2.8-9.8 1.5-3.1 3.7-7.2 4.9-9.1 1.2-1.8 2.4-3.4 2.7-3.4z"/>
		<path id="Layer" class="s0" d="m37.5 56.5c2.5 1.2 3.2 2.2 2.3 3.1-0.4 0.5-6.2-2.4-6.2-3.1 0-0.3 0.2-0.7 0.4-0.9 0.6-0.5 0.4-0.6 3.5 0.9z"/>
		<path id="Layer" class="s0" d="m85.4 55.4c1.6 0.5 0.8 1.7-1.9 3-2.6 1.4-3.1 1.4-3.7 0.7-0.5-0.7-0.2-1.1 2.2-2.3 1.6-0.9 3.1-1.5 3.4-1.4z"/>
		<path id="Layer" class="s0" d="m38.1 68.4c0 0.7-0.9 1-3.5 1.1-3.6 0.2-5.1-0.4-4.3-1.7 0.7-1.1 7.8-0.5 7.8 0.6z"/>
		<path id="Layer" class="s0" d="m89.7 68.4c0 0.7-0.9 1-3.5 1.1-3.6 0.2-5.1-0.4-4.3-1.7 0.7-1.1 7.8-0.5 7.8 0.6z"/>
		<path id="Layer" class="s0" d="m40.7 77.9c0.2 0.8-5.7 3.9-6.5 3.4-1.1-0.7-0.5-1.5 2.3-2.9 2.9-1.6 3.8-1.7 4.2-0.5z"/>
		<path id="Layer" class="s0" d="m83.4 78.3c2.9 1.5 3.6 2.3 2.4 3-0.7 0.4-6.6-2.5-6.6-3.2 0-0.3 0.2-0.7 0.4-0.9 0.6-0.6 0.5-0.6 3.8 1.1z"/>
	</g>
</svg>