<svg version="1.2" xmlns="http://www.w3.org/2000/svg" viewBox="0 0 120 120" width="120" height="120">
	<title>icons8-ведро-краски-100-svg-svg</title>
	<style>
		.s0 { fill: #000000 } 
	</style>
	<g id="Layer">
		<path id="Layer" fill-rule="evenodd" class="s0" d="m61.2 30.2c8.2 0.5 14.6 4.5 18.1 11.7l2 3.9 0.2 17.3c0.2 19.6 0.2 19.8-4.5 22.7-4.6 2.9-8.6 3.8-17 3.8-8.4 0-12.4-0.9-17-3.8-4.7-2.9-4.7-3.1-4.5-22.7l0.2-17.3 2-3.9c2.7-5.7 7.8-9.8 13.7-11.3 1.3-0.3 4.3-0.5 6.8-0.4zm-0.2 2.4c-6.7-0.3-11.5 1.7-15.9 6.8-2 2.2-4.2 6.2-3.5 6.2 0.2 0 1.3-0.4 2.6-1 7.9-3.3 23.7-3.3 31.6 0 1.3 0.6 2.4 1 2.6 1 0 0-0.2-0.8-0.5-1.8-1-2.9-5.7-7.6-9.3-9.4-2.4-1.2-4.5-1.6-7.6-1.8zm-8.8 12.3c-10.7 2.1-14.2 5.3-8.8 8.3 3.5 1.9 9 2.9 16.6 2.9 7.6 0 13.1-1 16.6-2.9 4.4-2.5 2.5-5.4-4.7-7.4-3.8-1-15.9-1.5-19.7-0.9zm-10.6 10.4c-0.6-0.8-0.7 1.2-0.8 12 0 12.3 0.1 13 1.3 14.5 6 7.7 30.3 7.5 36-0.2 1-1.4 1.1-2.6 1-14.4-0.2-12.6-0.2-12.8-1.3-11.3-0.6 0.9-1.4 3.8-1.8 6.6-0.6 3.8-1.1 5.2-2.2 6-2.8 2.3-6.4 0.7-7-3.2-0.4-2.7-1.1-3.3-2.3-2.3-0.7 0.6-0.9 2.2-0.9 6.9 0 5.3-0.2 6.4-1.3 7.7-0.7 1.1-1.8 1.6-2.8 1.6-3.8 0-5.5-3.2-5.5-10 0-2.1-0.3-4.5-0.6-5.3l-0.6-1.6-2 1.2c-4 2.5-6.5 1.2-7.7-3.8-0.4-1.9-1-3.8-1.5-4.4zm6.5 2.2l-3.1-0.9 0.4 2.1c0.6 3.8 2.6 4.8 4.7 2.5 0.6-0.7 1.7-1.2 2.5-1.2 2.3 0 3.3 2.4 3.8 9 0.4 6.1 1.1 7.8 3 7.8 1.6 0 1.8-1.1 1.8-7.9 0-5.5 0.1-6.1 1.5-7.4 1.6-1.6 4-2 5-0.7 0.4 0.5 0.9 1.7 1.1 2.9 0.2 1.1 0.6 2.4 1 2.7 0.8 1.2 2.7 1 3-0.3 0.5-1.4 1.5-8.7 1.3-9-0.1-0.1-1.4 0.1-2.8 0.6-1.6 0.4-6 0.7-11.3 0.7-5.9 0-9.7-0.3-11.9-0.9z"/>
	</g>
</svg>