<svg version="1.2" xmlns="http://www.w3.org/2000/svg" viewBox="0 0 120 120" width="120" height="120">
	<title>icons8-антисептический-крем-100-svg-svg</title>
	<style>
		.s0 { fill: #000000 } 
	</style>
	<g id="Layer">
		<path id="Layer" fill-rule="evenodd" class="s0" d="m60.2 31.3l16.3 0.2 0.2 3.6c0.5 8.6-1.9 26-4.9 35.1-1.2 3.8-1.9 7.6-2.1 11.3-0.4 5.3-0.5 5.7-2.1 6.9-1.4 1.1-2.5 1.3-7.6 1.3-5.1 0-6.2-0.2-7.6-1.3-1.6-1.2-1.7-1.6-2.1-6.9-0.2-3.7-0.9-7.5-2.1-11.3-1-3.1-2.3-8.3-2.8-11.4-1.8-10.6-2.8-26.2-1.8-27.2 0.3-0.2 7.7-0.3 16.6-0.3zm-0.2 2.3c-14 0-14.4 0.1-14.4 1.2 0 1.1 0.4 1.2 14.4 1.2 14 0 14.4-0.1 14.4-1.2 0-1.1-0.4-1.2-14.4-1.2zm14.5 4.8h-29l0.3 2.8c0.2 1.6 0.5 5.1 0.7 7.7 0.5 6.3 2.4 16.1 4.3 22 1.8 5.6 2.2 5.9 9.2 5.9 7 0 7.4-0.3 9.2-5.9 1.9-5.9 3.8-15.7 4.3-22 0.2-2.6 0.5-6.1 0.7-7.7zm-7.4 40.5h-14.4v3.7c0 3.6 0.1 3.7 1.9 4.4 2.5 0.8 8.2 0.8 10.7 0 1.8-0.7 1.8-0.8 1.8-4.4z"/>
		<path id="Layer" class="s0" d="m57.6 48h2.4 2.4v2.4 2.4h2.4 2.4v2.4 2.4h-2.4-2.4v2.4 2.4h-2.4-2.4v-2.4-2.4h-2.4-2.4v-2.4-2.4h2.4 2.4v-2.4z"/>
	</g>
</svg>