<?xml version="1.0" encoding="UTF-8" standalone="no" ?>
<!DOCTYPE svg PUBLIC "-//W3C//DTD SVG 1.1//EN" "http://www.w3.org/Graphics/SVG/1.1/DTD/svg11.dtd">
<svg xmlns="http://www.w3.org/2000/svg" xmlns:xlink="http://www.w3.org/1999/xlink" version="1.1" width="400" height="400" viewBox="0 0 400 400" xml:space="preserve">
<desc>Created with Fabric.js 3.6.2</desc>
<defs>
</defs>
<g transform="matrix(0.39 0 0 0.39 200 200)" id="Layer_1"  >
<path style="stroke: none; stroke-width: 1; stroke-dasharray: none; stroke-linecap: butt; stroke-dashoffset: 0; stroke-linejoin: miter; stroke-miterlimit: 4; fill: rgb(255,255,255); fill-rule: nonzero; opacity: 1;"  transform=" translate(-256, -256)" d="M 256 128 c -81.9 0 -145.7 48.8 -224 128 c 67.4 67.7 124 128 224 128 c 99.9 0 173.4 -76.4 224 -126.6 C 428.2 198.6 354.8 128 256 128 z M 256 347.3 c -49.4 0 -89.6 -41 -89.6 -91.3 c 0 -50.4 40.2 -91.3 89.6 -91.3 s 89.6 41 89.6 91.3 C 345.6 306.4 305.4 347.3 256 347.3 z" stroke-linecap="round" />
</g>
<g transform="matrix(0.39 0 0 0.39 200 200)" id="Layer_1"  >
<path style="stroke: none; stroke-width: 1; stroke-dasharray: none; stroke-linecap: butt; stroke-dashoffset: 0; stroke-linejoin: miter; stroke-miterlimit: 4; fill: rgb(255,255,255); fill-rule: nonzero; opacity: 1;"  transform=" translate(-256, -256)" d="M 256 224 c 0 -7.9 2.9 -15.1 7.6 -20.7 c -2.5 -0.4 -5 -0.6 -7.6 -0.6 c -28.8 0 -52.3 23.9 -52.3 53.3 c 0 29.4 23.5 53.3 52.3 53.3 s 52.3 -23.9 52.3 -53.3 c 0 -2.3 -0.2 -4.6 -0.4 -6.9 c -5.5 4.3 -12.3 6.9 -19.8 6.9 C 270.3 256 256 241.7 256 224 z" stroke-linecap="round" />
</g>
</svg>